# xmcd CD database file
#
# Track frame offsets:
#	150
#	13663
#	25771
#	42021
#	57353
#	73901
#	84561
#	98163
#	111726
#	127011
#	138371
#	153381
#	169266
#	179988
#	196691
#	207816
#
# Disc length: 2981 seconds
#
# Revision: 0
# Processed by: cddbd v1.5.1PL0 Copyright (c) Steve Scherf et al.
# Submitted via: CDex 1.50beta10
#
DISCID=e70ba310
DTITLE=Slim Whitman - How Great Thou Art (Madacy USA)
DYEAR=1999
DGENRE=Country
TTITLE0=He
TTITLE1=I'll Fly Away
TTITLE2=Who at My Door is Standing
TTITLE3=Suppertime
TTITLE4=Precious Memories
TTITLE5=Under His Wings
TTITLE6=I Know Who Holds Tomorrow
TTITLE7=A Closer Walk With The
TTITLE8=How Great Thou Art
TTITLE9=Have Thine own Way Lord
TTITLE10=I Will Pilot Thee
TTITLE11=Whispering Hope
TTITLE12=He Keeps Me Singing
TTITLE13=Face to Face
TTITLE14=Everybody Needs Someone to care
TTITLE15=God be with you
EXTD=YEAR: 1999
EXTT0=
EXTT1=
EXTT2=
EXTT3=
EXTT4=
EXTT5=
EXTT6=
EXTT7=
EXTT8=
EXTT9=
EXTT10=
EXTT11=
EXTT12=
EXTT13=
EXTT14=
EXTT15=
PLAYORDER=
